<svg width="100" height="100" viewBox="0 0 100 100" fill="none" xmlns="http://www.w3.org/2000/svg">
<g clip-path="url(#clip0_1074_293)">
<path d="M41.6666 20.8333C41.6666 18.6232 42.5446 16.5036 44.1074 14.9408C45.6702 13.378 47.7898 12.5 50 12.5C52.2101 12.5 54.3297 13.378 55.8925 14.9408C57.4553 16.5036 58.3333 18.6232 58.3333 20.8333C63.1183 23.0959 67.1975 26.618 70.1335 31.0221C73.0695 35.4261 74.7518 40.5461 75 45.8333V58.3333C75.3135 60.9238 76.2309 63.4044 77.6783 65.5755C79.1258 67.7466 81.0627 69.5476 83.3333 70.8333H16.6666C18.9372 69.5476 20.8742 67.7466 22.3216 65.5755C23.769 63.4044 24.6864 60.9238 25 58.3333V45.8333C25.2481 40.5461 26.9304 35.4261 29.8664 31.0221C32.8025 26.618 36.8816 23.0959 41.6666 20.8333Z" stroke="#0F0F0F" stroke-width="5" stroke-linecap="round" stroke-linejoin="round"/>
<path d="M37.5 70.8333V75C37.5 78.3152 38.817 81.4946 41.1612 83.8388C43.5054 86.1831 46.6848 87.5 50 87.5C53.3152 87.5 56.4946 86.1831 58.8388 83.8388C61.183 81.4946 62.5 78.3152 62.5 75V70.8333" stroke="#0F0F0F" stroke-width="5" stroke-linecap="round" stroke-linejoin="round"/>
</g>
<defs>
<clipPath id="clip0_1074_293">
<rect width="100" height="100" fill="white"/>
</clipPath>
</defs>
</svg>
