<svg width="100" height="100" viewBox="0 0 100 100" fill="none" xmlns="http://www.w3.org/2000/svg">
<g clip-path="url(#clip0_1311_11271)">
<path d="M41.6667 20.8333C41.6667 18.6232 42.5447 16.5036 44.1075 14.9408C45.6703 13.378 47.7899 12.5 50.0001 12.5C52.2102 12.5 54.3298 13.378 55.8926 14.9408C57.4554 16.5036 58.3334 18.6232 58.3334 20.8333C63.1185 23.0959 67.1976 26.618 70.1336 31.0221C73.0697 35.4261 74.7519 40.5461 75.0001 45.8333V58.3333C75.3136 60.9238 76.2311 63.4044 77.6785 65.5755C79.1259 67.7466 81.0628 69.5476 83.3334 70.8333H16.6667C18.9373 69.5476 20.8743 67.7466 22.3217 65.5755C23.7691 63.4044 24.6865 60.9238 25.0001 58.3333V45.8333C25.2482 40.5461 26.9305 35.4261 29.8665 31.0221C32.8026 26.618 36.8817 23.0959 41.6667 20.8333Z" stroke="white" stroke-width="5" stroke-linecap="round" stroke-linejoin="round"/>
<path d="M37.5 70.8334V75C37.5 78.3152 38.817 81.4947 41.1612 83.8389C43.5054 86.1831 46.6848 87.5 50 87.5C53.3152 87.5 56.4946 86.1831 58.8388 83.8389C61.183 81.4947 62.5 78.3152 62.5 75V70.8334" stroke="white" stroke-width="5" stroke-linecap="round" stroke-linejoin="round"/>
</g>
<defs>
<clipPath id="clip0_1311_11271">
<rect width="100" height="100" fill="white"/>
</clipPath>
</defs>
</svg>
