<svg width="100" height="100" viewBox="0 0 100 100" fill="none" xmlns="http://www.w3.org/2000/svg">
<g clip-path="url(#clip0_1074_297)">
<path d="M16.6666 79.1667C16.6666 81.3768 17.5446 83.4964 19.1074 85.0592C20.6702 86.622 22.7898 87.5 25 87.5C27.2101 87.5 29.3297 86.622 30.8925 85.0592C32.4553 83.4964 33.3333 81.3768 33.3333 79.1667C33.3333 76.9565 32.4553 74.8369 30.8925 73.2741C29.3297 71.7113 27.2101 70.8333 25 70.8333C22.7898 70.8333 20.6702 71.7113 19.1074 73.2741C17.5446 74.8369 16.6666 76.9565 16.6666 79.1667Z" stroke="#0F0F0F" stroke-width="5" stroke-linecap="round" stroke-linejoin="round"/>
<path d="M62.5 79.1667C62.5 81.3768 63.378 83.4964 64.9408 85.0592C66.5036 86.622 68.6232 87.5 70.8333 87.5C73.0435 87.5 75.1631 86.622 76.7259 85.0592C78.2887 83.4964 79.1667 81.3768 79.1667 79.1667C79.1667 76.9565 78.2887 74.8369 76.7259 73.2741C75.1631 71.7113 73.0435 70.8333 70.8333 70.8333C68.6232 70.8333 66.5036 71.7113 64.9408 73.2741C63.378 74.8369 62.5 76.9565 62.5 79.1667Z" stroke="#0F0F0F" stroke-width="5" stroke-linecap="round" stroke-linejoin="round"/>
<path d="M70.8333 70.8333H25V12.5H16.6666" stroke="#0F0F0F" stroke-width="5" stroke-linecap="round" stroke-linejoin="round"/>
<path d="M25 20.8333L83.3333 25L79.1667 54.1667H25" stroke="#0F0F0F" stroke-width="5" stroke-linecap="round" stroke-linejoin="round"/>
</g>
<defs>
<clipPath id="clip0_1074_297">
<rect width="100" height="100" fill="white"/>
</clipPath>
</defs>
</svg>
