<svg width="100" height="100" viewBox="0 0 100 100" fill="none" xmlns="http://www.w3.org/2000/svg">
<g clip-path="url(#clip0_1311_11276)">
<path d="M16.6667 79.1667C16.6667 81.3768 17.5447 83.4965 19.1075 85.0593C20.6703 86.6221 22.7899 87.5 25.0001 87.5C27.2102 87.5 29.3298 86.6221 30.8926 85.0593C32.4554 83.4965 33.3334 81.3768 33.3334 79.1667C33.3334 76.9566 32.4554 74.837 30.8926 73.2742C29.3298 71.7113 27.2102 70.8334 25.0001 70.8334C22.7899 70.8334 20.6703 71.7113 19.1075 73.2742C17.5447 74.837 16.6667 76.9566 16.6667 79.1667Z" stroke="white" stroke-width="5" stroke-linecap="round" stroke-linejoin="round"/>
<path d="M62.5 79.1667C62.5 81.3768 63.378 83.4965 64.9408 85.0593C66.5036 86.6221 68.6232 87.5 70.8333 87.5C73.0435 87.5 75.1631 86.6221 76.7259 85.0593C78.2887 83.4965 79.1667 81.3768 79.1667 79.1667C79.1667 76.9566 78.2887 74.837 76.7259 73.2742C75.1631 71.7113 73.0435 70.8334 70.8333 70.8334C68.6232 70.8334 66.5036 71.7113 64.9408 73.2742C63.378 74.837 62.5 76.9566 62.5 79.1667Z" stroke="white" stroke-width="5" stroke-linecap="round" stroke-linejoin="round"/>
<path d="M70.8334 70.8333H25.0001V12.5H16.6667" stroke="white" stroke-width="5" stroke-linecap="round" stroke-linejoin="round"/>
<path d="M25 20.8334L83.3333 25L79.1667 54.1667H25" stroke="white" stroke-width="5" stroke-linecap="round" stroke-linejoin="round"/>
</g>
<defs>
<clipPath id="clip0_1311_11276">
<rect width="100" height="100" fill="white"/>
</clipPath>
</defs>
</svg>
