<svg width="120" height="120" viewBox="0 0 120 120" fill="none" xmlns="http://www.w3.org/2000/svg">
<g clip-path="url(#clip0_1074_107)">
<path d="M50 69C50 71.6522 51.0536 74.1957 52.9289 76.0711C54.8043 77.9464 57.3478 79 60 79C62.6522 79 65.1957 77.9464 67.0711 76.0711C68.9464 74.1957 70 71.6522 70 69C70 66.3478 68.9464 63.8043 67.0711 61.9289C65.1957 60.0536 62.6522 59 60 59C57.3478 59 54.8043 60.0536 52.9289 61.9289C51.0536 63.8043 50 66.3478 50 69Z" stroke="#F64C35" stroke-width="6" stroke-linecap="round" stroke-linejoin="round"/>
<path d="M25.0051 39H95.0001C96.4419 38.9998 97.8668 39.3114 99.1769 39.9135C100.487 40.5156 101.651 41.3938 102.59 42.488C103.529 43.5822 104.22 44.8666 104.617 46.2529C105.013 47.6393 105.104 49.0949 104.885 50.52L98.6101 86.28C98.0654 89.8222 96.2704 93.0523 93.5501 95.3856C90.8298 97.7188 87.364 99.001 83.7801 99H36.2201C32.6371 98.9998 29.1725 97.7171 26.4532 95.384C23.734 93.0508 21.9397 89.8214 21.3951 86.28L15.1201 50.52C14.9009 49.0949 14.9925 47.6393 15.3886 46.2529C15.7847 44.8666 16.4759 43.5822 17.4148 42.488C18.3538 41.3938 19.5182 40.5156 20.8283 39.9135C22.1384 39.3114 23.5633 38.9998 25.0051 39Z" stroke="#F64C35" stroke-width="6" stroke-linecap="round" stroke-linejoin="round"/>
<path d="M85 49L75 19" stroke="#F64C35" stroke-width="6" stroke-linecap="round" stroke-linejoin="round"/>
<path d="M35 49L45 19" stroke="#F64C35" stroke-width="6" stroke-linecap="round" stroke-linejoin="round"/>
</g>
<defs>
<clipPath id="clip0_1074_107">
<rect width="120" height="120" fill="white"/>
</clipPath>
</defs>
</svg>
