<svg width="120" height="120" viewBox="0 0 120 120" fill="none" xmlns="http://www.w3.org/2000/svg">
<g clip-path="url(#clip0_1074_81)">
<path d="M29.655 34.6797L36.03 55.9247M64.065 83.9697L85.32 90.3447" stroke="#F64C35" stroke-width="6" stroke-linecap="round" stroke-linejoin="round"/>
<path d="M58.415 61.585L87.21 32.79" stroke="#F64C35" stroke-width="6" stroke-linecap="round" stroke-linejoin="round"/>
<path d="M20 27.5C20 28.4849 20.194 29.4602 20.5709 30.3701C20.9478 31.2801 21.5003 32.1069 22.1967 32.8033C22.8931 33.4997 23.7199 34.0522 24.6299 34.4291C25.5398 34.806 26.5151 35 27.5 35C28.4849 35 29.4602 34.806 30.3701 34.4291C31.2801 34.0522 32.1069 33.4997 32.8033 32.8033C33.4997 32.1069 34.0522 31.2801 34.4291 30.3701C34.806 29.4602 35 28.4849 35 27.5C35 26.5151 34.806 25.5398 34.4291 24.6299C34.0522 23.7199 33.4997 22.8931 32.8033 22.1967C32.1069 21.5003 31.2801 20.9478 30.3701 20.5709C29.4602 20.194 28.4849 20 27.5 20C26.5151 20 25.5398 20.194 24.6299 20.5709C23.7199 20.9478 22.8931 21.5003 22.1967 22.1967C21.5003 22.8931 20.9478 23.7199 20.5709 24.6299C20.194 25.5398 20 26.5151 20 27.5Z" stroke="#F64C35" stroke-width="6" stroke-linecap="round" stroke-linejoin="round"/>
<path d="M85 27.5C85 29.4891 85.7902 31.3968 87.1967 32.8033C88.6032 34.2098 90.5109 35 92.5 35C94.4891 35 96.3968 34.2098 97.8033 32.8033C99.2098 31.3968 100 29.4891 100 27.5C100 25.5109 99.2098 23.6032 97.8033 22.1967C96.3968 20.7902 94.4891 20 92.5 20C90.5109 20 88.6032 20.7902 87.1967 22.1967C85.7902 23.6032 85 25.5109 85 27.5Z" stroke="#F64C35" stroke-width="6" stroke-linecap="round" stroke-linejoin="round"/>
<path d="M85 92.5C85 94.4891 85.7902 96.3968 87.1967 97.8033C88.6032 99.2098 90.5109 100 92.5 100C94.4891 100 96.3968 99.2098 97.8033 97.8033C99.2098 96.3968 100 94.4891 100 92.5C100 90.5109 99.2098 88.6032 97.8033 87.1967C96.3968 85.7902 94.4891 85 92.5 85C90.5109 85 88.6032 85.7902 87.1967 87.1967C85.7902 88.6032 85 90.5109 85 92.5Z" stroke="#F64C35" stroke-width="6" stroke-linecap="round" stroke-linejoin="round"/>
<path d="M20 77.5C20 83.4674 22.3705 89.1903 26.5901 93.4099C30.8097 97.6295 36.5326 100 42.5 100C48.4674 100 54.1903 97.6295 58.4099 93.4099C62.6295 89.1903 65 83.4674 65 77.5C65 71.5326 62.6295 65.8097 58.4099 61.5901C54.1903 57.3705 48.4674 55 42.5 55C36.5326 55 30.8097 57.3705 26.5901 61.5901C22.3705 65.8097 20 71.5326 20 77.5Z" stroke="#F64C35" stroke-width="6" stroke-linecap="round" stroke-linejoin="round"/>
</g>
<defs>
<clipPath id="clip0_1074_81">
<rect width="120" height="120" fill="white"/>
</clipPath>
</defs>
</svg>
