<svg width="93" height="84" viewBox="0 0 93 84" fill="none" xmlns="http://www.w3.org/2000/svg">
<path d="M77.2037 43.701C77.2037 60.863 63.2859 74.7809 46.1238 74.7809C28.9618 74.7809 15.0439 60.863 15.0439 43.701C15.0439 26.5389 28.9455 12.6211 46.1076 12.6211C63.2697 12.6211 77.1875 26.5389 77.1875 43.701H77.2037Z" stroke="white" stroke-width="6"/>
<path d="M23.5604 7.52767C18.8563 2.83973 11.2323 2.83973 6.52812 7.52767C1.82396 12.2318 1.82396 19.8558 6.52812 24.5437C6.96609 24.9817 7.45273 25.371 7.93937 25.7279L24.7446 8.93892C24.3877 8.45228 23.9984 7.98187 23.5604 7.52767Z" stroke="white" stroke-width="6"/>
<path d="M16.8284 17.8281L22.4085 23.4082" stroke="white" stroke-width="6"/>
<path d="M68.6715 7.52812C73.3756 2.82396 80.9996 2.82396 85.7038 7.52812C90.4079 12.2323 90.4079 19.8563 85.7038 24.5442C85.2658 24.9822 84.7791 25.3715 84.2925 25.7283L67.4873 8.92315C67.8442 8.43651 68.2335 7.96609 68.6715 7.5119V7.52812Z" stroke="white" stroke-width="6"/>
<path d="M75.4031 17.8281L69.823 23.4082" stroke="white" stroke-width="6"/>
<path d="M26.9342 70.0938L21.5974 82.0001" stroke="white" stroke-width="6"/>
<path d="M65.2971 70.0938L70.6339 82.0001" stroke="white" stroke-width="6"/>
<path d="M46.5133 26.5723V43.199H33.439" stroke="white" stroke-width="6"/>
</svg>
