<svg width="59" height="91" viewBox="0 0 59 91" fill="none" xmlns="http://www.w3.org/2000/svg">
<path d="M3 3V31.0591C3 45.7344 14.9001 57.6346 29.5754 57.6346C44.2507 57.6346 56.1509 45.7344 56.1509 31.0591V3H3Z" stroke="white" stroke-width="5"/>
<path d="M29.575 57.6355V76.9233" stroke="white" stroke-width="5"/>
<path d="M53.7519 80.9504C53.7519 79.1361 52.2759 77.6602 50.4617 77.6602H8.68817C6.87394 77.6602 5.39795 79.1361 5.39795 80.9504V87.9997H53.7519V80.9504Z" stroke="white" stroke-width="5"/>
<path d="M39.6072 39.0923L38.5156 32.7348C38.5156 32.7348 42.7975 28.499 42.9897 28.3069C45.2114 26.139 44.7886 24.0019 42.1748 23.2485L35.1024 22.2184L32.0274 15.9916C30.6053 13.6623 28.545 13.6623 27.1229 15.9916L24.0479 22.2184L16.9754 23.2485C14.354 24.0019 13.9312 26.139 16.1606 28.3069C16.3528 28.499 20.6347 32.7348 20.6347 32.7348L19.543 39.0923C19.1125 42.2826 21.0882 43.6279 24.0479 42.075C24.3169 41.9367 29.5751 39.2307 29.5751 39.2307C29.5751 39.2307 34.8333 41.929 35.1024 42.075C38.0621 43.6279 40.0377 42.2826 39.6072 39.0923Z" stroke="white" stroke-width="5"/>
</svg>
