<svg width="54" height="54" viewBox="0 0 54 54" fill="none" xmlns="http://www.w3.org/2000/svg">
<path d="M2 52H15.0477L49.2977 17.7499C50.1545 16.8932 50.8341 15.8761 51.2977 14.7568C51.7614 13.6374 52 12.4377 52 11.2261C52 10.0145 51.7614 8.81478 51.2977 7.69542C50.8341 6.57605 50.1545 5.55898 49.2977 4.70226C48.441 3.84554 47.4239 3.16595 46.3046 2.70229C45.1852 2.23864 43.9855 2 42.7739 2C41.5623 2 40.3626 2.23864 39.2433 2.70229C38.1239 3.16595 37.1068 3.84554 36.2501 4.70226L2 38.9523V52Z" stroke="#333333" stroke-width="4" stroke-linecap="round" stroke-linejoin="round"/>
<path d="M32.9922 7.96497L46.0398 21.0126" stroke="#333333" stroke-width="4" stroke-linecap="round" stroke-linejoin="round"/>
</svg>
