<svg width="277" height="150" viewBox="0 0 277 150" fill="none" xmlns="http://www.w3.org/2000/svg">
<g clip-path="url(#clip0_1230_5907)">
<path d="M244.989 89.6374V19.4603C244.989 14.0716 246.602 9.93759 249.829 7.05836C253.056 4.19033 256.776 2.74512 261 2.74512C265.224 2.74512 268.944 4.17913 272.171 7.05836C275.398 9.93759 277.011 14.0716 277.011 19.4603V130.271C277.011 132.971 276.485 135.313 275.431 137.307C274.378 139.301 273.022 141.004 271.387 142.405C269.739 143.816 267.891 144.925 265.84 145.743C263.79 146.561 261.762 147.031 259.767 147.155C255.543 147.502 251.207 146.83 246.748 145.127C242.288 143.424 238.949 140.702 236.72 136.949L193.795 60.9683V145.049H161.783V20.6927C161.783 17.9927 162.31 15.5952 163.363 13.4778C164.416 11.3716 165.794 9.57909 167.498 8.11146C169.201 6.64384 171.105 5.50111 173.212 4.68328C175.318 3.86544 177.369 3.33889 179.374 3.10362C183.599 2.63308 187.879 3.28287 192.215 5.04178C196.551 6.80069 199.834 9.55668 202.064 13.3098L244.989 89.6486V89.6374Z" fill="#FF4218"/>
<path d="M75.0036 149.989C116.427 149.989 150.007 116.413 150.007 74.9944C150.007 33.5761 116.427 0 75.0036 0C33.5802 0 0 33.5761 0 74.9944C0 116.413 33.5802 149.989 75.0036 149.989Z" fill="#FF4218"/>
<path d="M69.1435 46.0566L102.981 67.6228C108.382 71.0622 108.382 78.9381 102.981 82.3775L69.1435 103.944C63.3171 107.652 55.6868 103.473 55.6868 96.5608V53.4395C55.6868 46.5271 63.3171 42.3483 69.1435 46.0566Z" fill="white"/>
</g>
<defs>
<clipPath id="clip0_1230_5907">
<rect width="277" height="150" fill="white"/>
</clipPath>
</defs>
</svg>
