<svg width="230" height="230" viewBox="0 0 230 230" fill="none" xmlns="http://www.w3.org/2000/svg">
<g clip-path="url(#clip0_1489_5265)">
<path d="M47.9162 69C47.9162 63.4084 50.1375 58.0457 54.0914 54.0919C58.0453 50.138 63.4079 47.9167 68.9995 47.9167H78.5829C84.1498 47.9135 89.4896 45.7087 93.437 41.7834L100.145 35.075C102.105 33.1047 104.434 31.5411 107 30.4741C109.565 29.4072 112.317 28.8579 115.095 28.8579C117.874 28.8579 120.625 29.4072 123.191 30.4741C125.757 31.5411 128.086 33.1047 130.045 35.075L136.754 41.7834C140.702 45.7125 146.05 47.9167 151.608 47.9167H161.191C166.783 47.9167 172.145 50.138 176.099 54.0919C180.053 58.0457 182.275 63.4084 182.275 69V78.5834C182.275 84.1417 184.479 89.4892 188.408 93.4375L195.116 100.146C197.087 102.105 198.65 104.435 199.717 107C200.784 109.566 201.333 112.317 201.333 115.096C201.333 117.875 200.784 120.626 199.717 123.191C198.65 125.757 197.087 128.087 195.116 130.046L188.408 136.754C184.483 140.702 182.278 146.041 182.275 151.608V161.192C182.275 166.783 180.053 172.146 176.099 176.1C172.145 180.054 166.783 182.275 161.191 182.275H151.608C146.041 182.278 140.701 184.483 136.754 188.408L130.045 195.117C128.086 197.087 125.757 198.651 123.191 199.718C120.625 200.785 117.874 201.334 115.095 201.334C112.317 201.334 109.565 200.785 107 199.718C104.434 198.651 102.105 197.087 100.145 195.117L93.437 188.408C89.4896 184.483 84.1498 182.278 78.5829 182.275H68.9995C63.4079 182.275 58.0453 180.054 54.0914 176.1C50.1375 172.146 47.9162 166.783 47.9162 161.192V151.608C47.913 146.041 45.7082 140.702 41.7829 136.754L35.0745 130.046C33.1042 128.087 31.5406 125.757 30.4736 123.191C29.4067 120.626 28.8574 117.875 28.8574 115.096C28.8574 112.317 29.4067 109.566 30.4736 107C31.5406 104.435 33.1042 102.105 35.0745 100.146L41.7829 93.4375C45.7082 89.4901 47.913 84.1503 47.9162 78.5834V69Z" stroke="#333333" stroke-width="8" stroke-linecap="round" stroke-linejoin="round"/>
<path d="M86.25 115L105.417 134.167L143.75 95.8334" stroke="#333333" stroke-width="8" stroke-linecap="round" stroke-linejoin="round"/>
</g>
<defs>
<clipPath id="clip0_1489_5265">
<rect width="230" height="230" fill="white"/>
</clipPath>
</defs>
</svg>
