<svg width="283" height="50" viewBox="0 0 283 50" fill="none" xmlns="http://www.w3.org/2000/svg">
<path d="M27.7041 42.1935C26.8296 41.7327 25.7843 41.7322 24.9094 42.1922L15.4397 47.171C13.2388 48.3282 10.6664 46.4592 11.0868 44.0085L12.8959 33.4623C13.0629 32.4884 12.7397 31.4947 12.0316 30.8054L4.36169 23.3395C2.57887 21.6041 3.56168 18.5777 6.02394 18.2208L16.603 16.6876C17.5806 16.546 18.4258 15.9321 18.8629 15.0463L23.5984 5.45104C24.6989 3.22128 27.8784 3.22128 28.9789 5.45104L33.7144 15.0463C34.1515 15.9321 34.9967 16.546 35.9743 16.6876L46.5534 18.2208C49.0156 18.5777 49.9984 21.6041 48.2156 23.3395L40.5457 30.8054C39.8376 31.4947 39.5144 32.4884 39.6814 33.4623L41.4893 44.0014C41.91 46.4534 39.3349 48.3225 37.1339 47.1627L27.7041 42.1935Z" fill="#FEA938"/>
<path d="M142.859 42.1935C141.984 41.7327 140.939 41.7322 140.064 42.1922L130.594 47.171C128.394 48.3282 125.821 46.4592 126.242 44.0085L128.051 33.4623C128.218 32.4884 127.894 31.4947 127.186 30.8054L119.516 23.3395C117.734 21.6041 118.716 18.5777 121.179 18.2208L131.758 16.6876C132.735 16.546 133.581 15.9321 134.018 15.0463L138.753 5.45104C139.854 3.22128 143.033 3.22128 144.134 5.45104L148.869 15.0463C149.306 15.9321 150.152 16.546 151.129 16.6876L161.708 18.2208C164.17 18.5777 165.153 21.6041 163.37 23.3395L155.701 30.8054C154.992 31.4947 154.669 32.4884 154.836 33.4623L156.644 44.0014C157.065 46.4534 154.49 48.3225 152.289 47.1627L142.859 42.1935Z" fill="#FEA938"/>
<path d="M85.2815 42.1935C84.407 41.7327 83.3617 41.7322 82.4868 42.1922L73.0171 47.171C70.8161 48.3282 68.2438 46.4592 68.6642 44.0085L70.4733 33.4623C70.6403 32.4884 70.3171 31.4947 69.609 30.8054L61.9391 23.3395C60.1563 21.6041 61.1391 18.5777 63.6013 18.2208L74.1804 16.6876C75.158 16.546 76.0032 15.9321 76.4403 15.0463L81.1758 5.45104C82.2763 3.22128 85.4558 3.22128 86.5563 5.45104L91.2918 15.0463C91.7289 15.9321 92.5741 16.546 93.5517 16.6876L104.131 18.2208C106.593 18.5777 107.576 21.6041 105.793 23.3395L98.1231 30.8054C97.415 31.4947 97.0918 32.4884 97.2588 33.4623L99.0667 44.0014C99.4874 46.4534 96.9123 48.3225 94.7113 47.1627L85.2815 42.1935Z" fill="#FEA938"/>
<path d="M200.436 42.1935C199.562 41.7327 198.516 41.7322 197.642 42.1922L188.172 47.171C185.971 48.3282 183.399 46.4592 183.819 44.0085L185.628 33.4623C185.795 32.4884 185.472 31.4947 184.764 30.8054L177.094 23.3395C175.311 21.6041 176.294 18.5777 178.756 18.2208L189.335 16.6876C190.313 16.546 191.158 15.9321 191.595 15.0463L196.331 5.45104C197.431 3.22128 200.611 3.22128 201.711 5.45104L206.447 15.0463C206.884 15.9321 207.729 16.546 208.706 16.6876L219.286 18.2208C221.748 18.5777 222.731 21.6041 220.948 23.3395L213.278 30.8054C212.57 31.4947 212.247 32.4884 212.414 33.4623L214.222 44.0014C214.642 46.4534 212.067 48.3225 209.866 47.1627L200.436 42.1935Z" fill="#FEA938"/>
<path d="M258.014 42.1935C257.139 41.7327 256.094 41.7322 255.219 42.1922L245.749 47.171C243.548 48.3282 240.976 46.4592 241.396 44.0085L243.205 33.4623C243.373 32.4884 243.049 31.4947 242.341 30.8054L234.671 23.3395C232.888 21.6041 233.871 18.5777 236.334 18.2208L246.913 16.6876C247.89 16.546 248.735 15.9321 249.172 15.0463L253.908 5.45104C255.008 3.22128 258.188 3.22128 259.288 5.45104L264.024 15.0463C264.461 15.9321 265.306 16.546 266.284 16.6876L276.863 18.2208C279.325 18.5777 280.308 21.6041 278.525 23.3395L270.855 30.8054C270.147 31.4947 269.824 32.4884 269.991 33.4623L271.799 44.0014C272.22 46.4534 269.644 48.3225 267.444 47.1627L258.014 42.1935Z" fill="#FEA938"/>
</svg>
