<svg width="247" height="88" viewBox="0 0 247 88" fill="none" xmlns="http://www.w3.org/2000/svg">
<path d="M61.652 40.844C59.9347 39.4333 58.064 38.0533 56.04 36.704C54.0773 35.2933 52.084 33.944 50.06 32.656C48.036 31.3067 46.012 30.0493 43.988 28.884C42.0253 27.6573 40.1547 26.492 38.376 25.388C34.8187 29.068 31.0773 32.38 27.152 35.324C23.2267 38.2067 19.6387 40.4453 16.388 42.04C15.652 42.408 14.8853 42.684 14.088 42.868C13.352 43.052 12.616 42.9907 11.88 42.684C11.0213 42.3773 10.2853 42.04 9.672 41.672C9.05867 41.2427 8.53733 40.844 8.108 40.476C7.61733 39.9853 7.43333 39.4333 7.556 38.82C7.67867 38.1453 8.04667 37.624 8.66 37.256C10.9907 35.784 13.3827 34.1587 15.836 32.38C18.3507 30.6013 20.7733 28.7307 23.104 26.768C25.4347 24.8053 27.612 22.7507 29.636 20.604C31.66 18.396 33.3773 16.188 34.788 13.98H29.176C28.0107 13.98 26.876 14.0413 25.772 14.164C24.7293 14.2253 23.6867 14.4093 22.644 14.716C20.3133 15.3907 18.1667 15.728 16.204 15.728C15.4067 15.728 14.7933 15.636 14.364 15.452C13.996 15.268 13.628 14.9307 13.26 14.44C12.5853 13.4587 11.9413 12.2627 11.328 10.852C10.7147 9.44133 10.316 8.12266 10.132 6.896C10.0093 6.40533 10.1013 6.00666 10.408 5.7C10.776 5.332 11.2053 5.20933 11.696 5.332C13.2293 5.63866 14.8547 5.85333 16.572 5.976C18.2893 6.03733 20.1907 6.068 22.276 6.068H50.244C51.2867 6.068 52.4213 5.976 53.648 5.792C54.8747 5.608 56.0093 5.39333 57.052 5.148C59.1373 4.65733 61.1613 4.412 63.124 4.412C64.228 4.412 65.148 4.872 65.884 5.792C66.6813 6.77333 67.3253 7.908 67.816 9.196C68.3067 10.4227 68.6133 11.7107 68.736 13.06C68.7973 14.0413 68.2147 14.4707 66.988 14.348C65.3933 14.164 63.6453 14.072 61.744 14.072C59.8427 14.0107 58.0027 13.98 56.224 13.98H47.208C46.7173 14.8387 46.196 15.636 45.644 16.372C45.1533 17.108 44.6013 17.8747 43.988 18.672C45.828 19.592 47.7907 20.6653 49.876 21.892C52.0227 23.0573 54.2307 24.3147 56.5 25.664C58.7693 27.0133 61.008 28.4547 63.216 29.988C65.424 31.46 67.54 32.9627 69.564 34.496C70.2387 34.9867 70.4533 35.5693 70.208 36.244C70.024 36.8573 69.7787 37.4093 69.472 37.9C69.104 38.3907 68.6133 38.9733 68 39.648C67.3867 40.2613 66.7733 40.752 66.16 41.12C65.1173 41.7947 64.2587 42.0707 63.584 41.948C62.9707 41.8253 62.3267 41.4573 61.652 40.844ZM59.904 47.192C62.2347 47.192 64.7493 46.8547 67.448 46.18C69.656 45.628 71.9867 45.352 74.44 45.352C75.544 45.352 76.464 45.812 77.2 46.732C77.9973 47.7133 78.6413 48.9093 79.132 50.32C79.6227 51.7307 79.9293 53.1107 80.052 54.46C80.1133 55.5027 79.5307 55.932 78.304 55.748C76.7093 55.5027 74.9613 55.3493 73.06 55.288C71.1587 55.1653 69.3187 55.104 67.54 55.104H46.196V77.276C46.196 78.748 45.6133 79.9133 44.448 80.772C43.4053 81.5693 42.1787 82.2133 40.768 82.704C39.4187 83.256 38.0693 83.532 36.72 83.532C35.248 83.532 34.512 82.796 34.512 81.324V55.104H21.816C20.4667 55.104 19.148 55.196 17.86 55.38C16.572 55.5027 15.376 55.7173 14.272 56.024C11.696 56.6987 9.212 57.036 6.82 57.036C6.02267 57.036 5.40933 56.944 4.98 56.76C4.612 56.576 4.244 56.2387 3.876 55.748C3.20133 54.7667 2.55733 53.54 1.944 52.068C1.33067 50.5347 0.932 49.1547 0.748 47.928C0.625333 47.4373 0.717333 47.0387 1.024 46.732C1.392 46.364 1.82133 46.2413 2.312 46.364C5.31733 46.916 8.844 47.192 12.892 47.192H59.904ZM130.228 28.516C130.228 31.3373 129.676 33.9747 128.572 36.428C127.529 38.82 126.057 40.936 124.156 42.776C122.316 44.5547 120.077 45.9653 117.44 47.008C114.864 47.9893 112.012 48.48 108.884 48.48C105.756 48.48 102.873 47.9893 100.236 47.008C97.6599 45.9653 95.4213 44.5547 93.5199 42.776C91.6799 40.936 90.2079 38.82 89.1039 36.428C88.0613 33.9747 87.5399 31.3373 87.5399 28.516C87.5399 25.6947 88.0613 23.088 89.1039 20.696C90.2079 18.2427 91.6799 16.1267 93.5199 14.348C95.4213 12.508 97.6599 11.0973 100.236 10.116C102.873 9.07333 105.756 8.552 108.884 8.552C112.012 8.552 114.864 9.07333 117.44 10.116C120.077 11.0973 122.316 12.508 124.156 14.348C126.057 16.1267 127.529 18.2427 128.572 20.696C129.676 23.088 130.228 25.6947 130.228 28.516ZM118.636 28.516C118.636 24.836 117.747 21.9227 115.968 19.776C114.189 17.6293 111.828 16.556 108.884 16.556C105.94 16.556 103.579 17.6293 101.8 19.776C100.021 21.9227 99.1319 24.836 99.1319 28.516C99.1319 32.196 100.021 35.1093 101.8 37.256C103.579 39.4027 105.94 40.476 108.884 40.476C111.828 40.476 114.189 39.4027 115.968 37.256C117.747 35.1093 118.636 32.196 118.636 28.516ZM153.504 57.588C153.504 59.06 152.921 60.2253 151.756 61.084C150.713 61.8813 149.517 62.556 148.168 63.108C146.88 63.5987 145.561 63.844 144.212 63.844C142.74 63.844 142.004 63.108 142.004 61.636V14.716C142.004 12.7533 141.421 11.2813 140.256 10.3C139.397 9.62533 138.539 9.07333 137.68 8.644C136.883 8.21466 136.055 7.84666 135.196 7.53999C134.46 7.23333 134.123 6.77333 134.184 6.16C134.307 5.30133 134.583 4.35066 135.012 3.30799C135.441 2.26533 135.871 1.43733 136.3 0.823994C136.607 0.394662 137.097 0.241329 137.772 0.363994C140.409 0.854662 143.047 1.62133 145.684 2.664C148.321 3.64533 150.713 4.84133 152.86 6.252C154.025 6.988 154.516 7.93866 154.332 9.104C154.148 10.5147 153.964 11.9867 153.78 13.52C153.596 14.992 153.504 16.5253 153.504 18.12V57.588ZM138.508 75.62C140.839 75.62 143.353 75.2827 146.052 74.608C148.26 74.056 150.591 73.78 153.044 73.78C154.148 73.78 155.068 74.24 155.804 75.16C156.601 76.1413 157.245 77.3067 157.736 78.656C158.227 80.0053 158.533 81.3547 158.656 82.704C158.717 83.6853 158.135 84.1147 156.908 83.992C155.313 83.808 153.565 83.6853 151.664 83.624C149.763 83.5627 147.923 83.532 146.144 83.532H117.348C116.551 83.532 115.753 83.4707 114.956 83.348C114.159 83.2867 113.423 83.164 112.748 82.98C110.908 82.3667 109.497 81.3547 108.516 79.944C108.209 79.4533 107.964 78.9013 107.78 78.288C107.596 77.736 107.504 77.1533 107.504 76.54V66.88C107.504 66.0827 107.381 65.316 107.136 64.58C106.952 63.7827 106.615 63.1693 106.124 62.74C105.572 62.2493 104.928 61.8813 104.192 61.636C103.517 61.3293 102.843 61.0533 102.168 60.808C101.309 60.624 100.941 60.2253 101.064 59.612C101.125 58.9373 101.248 58.232 101.432 57.496C101.616 56.6987 101.831 55.9627 102.076 55.288C102.321 54.736 102.873 54.46 103.732 54.46C105.817 54.5213 108.148 54.8587 110.724 55.472C113.3 56.024 115.876 56.8213 118.452 57.864C118.943 58.048 119.28 58.3547 119.464 58.784C119.648 59.2133 119.679 59.6733 119.556 60.164C119.311 61.3907 119.157 62.5867 119.096 63.752C119.035 64.856 119.004 65.96 119.004 67.064V73.688C119.004 74.4853 119.157 75.0067 119.464 75.252C119.771 75.4973 120.261 75.62 120.936 75.62H138.508ZM229.808 68.72C229.808 71.296 229.287 73.7187 228.244 75.988C227.263 78.196 225.852 80.0973 224.012 81.692C222.172 83.348 219.964 84.636 217.388 85.556C214.873 86.5373 212.083 87.028 209.016 87.028C205.888 87.028 203.036 86.5373 200.46 85.556C197.884 84.636 195.676 83.348 193.836 81.692C192.057 80.0973 190.647 78.196 189.604 75.988C188.623 73.7187 188.132 71.296 188.132 68.72C188.132 66.144 188.623 63.752 189.604 61.544C190.647 59.2747 192.057 57.3427 193.836 55.748C195.676 54.092 197.884 52.804 200.46 51.884C203.036 50.9027 205.888 50.412 209.016 50.412C212.083 50.412 214.873 50.9027 217.388 51.884C219.964 52.804 222.172 54.092 224.012 55.748C225.852 57.3427 227.263 59.2747 228.244 61.544C229.287 63.752 229.808 66.144 229.808 68.72ZM194.204 9.104C195.247 9.104 196.381 9.012 197.608 8.82799C198.835 8.644 199.969 8.42933 201.012 8.184C203.097 7.69333 205.121 7.448 207.084 7.448C208.188 7.448 209.108 7.908 209.844 8.82799C210.641 9.80933 211.285 10.944 211.776 12.232C212.267 13.4587 212.573 14.7467 212.696 16.096C212.757 17.0773 212.175 17.5067 210.948 17.384C209.353 17.2 207.605 17.108 205.704 17.108C203.803 17.0467 201.963 17.016 200.184 17.016H198.988C197.884 20.0827 196.596 23.0267 195.124 25.848C197.823 27.3813 200.644 29.2827 203.588 31.552C206.593 33.8213 209.476 36.3973 212.236 39.28C212.604 39.7093 212.788 40.2 212.788 40.752C212.849 41.2427 212.757 41.7333 212.512 42.224C212.267 42.6533 211.899 43.144 211.408 43.696C210.979 44.248 210.488 44.8 209.936 45.352C209.384 45.8427 208.801 46.3027 208.188 46.732C207.636 47.1613 207.115 47.468 206.624 47.652C205.581 48.02 204.661 47.744 203.864 46.824C202.208 44.6773 200.184 42.4693 197.792 40.2C195.461 37.9307 193.008 35.7227 190.432 33.576C188.224 36.888 185.863 39.8933 183.348 42.592C180.895 45.2907 178.411 47.7133 175.896 49.86C174.669 50.78 173.535 51.2093 172.492 51.148C170.897 50.964 169.364 50.3813 167.892 49.4C167.463 49.0933 167.279 48.7253 167.34 48.296C167.401 47.8667 167.585 47.468 167.892 47.1C171.817 42.7453 175.467 38.0533 178.84 33.024C182.213 27.9333 185.004 22.5973 187.212 17.016C186.169 17.0773 185.157 17.1693 184.176 17.292C183.195 17.3533 182.244 17.5067 181.324 17.752C178.993 18.4267 176.847 18.764 174.884 18.764C174.087 18.764 173.473 18.672 173.044 18.488C172.676 18.304 172.308 17.9667 171.94 17.476C171.265 16.4947 170.621 15.2987 170.008 13.888C169.395 12.4773 168.996 11.1587 168.812 9.932C168.689 9.44133 168.781 9.04266 169.088 8.736C169.456 8.368 169.885 8.24533 170.376 8.368C171.909 8.67466 173.535 8.88933 175.252 9.012C176.969 9.07333 178.871 9.104 180.956 9.104H194.204ZM231.74 44.248C231.74 45.72 231.157 46.8853 229.992 47.744C228.949 48.5413 227.753 49.216 226.404 49.768C225.116 50.2587 223.797 50.504 222.448 50.504C220.976 50.504 220.24 49.768 220.24 48.296V14.716C220.24 12.7533 219.657 11.2813 218.492 10.3C217.633 9.62533 216.775 9.07333 215.916 8.644C215.119 8.21466 214.291 7.84666 213.432 7.53999C212.696 7.23333 212.359 6.77333 212.42 6.16C212.543 5.30133 212.819 4.35066 213.248 3.30799C213.677 2.26533 214.107 1.43733 214.536 0.823994C214.843 0.394662 215.333 0.241329 216.008 0.363994C218.645 0.854662 221.283 1.62133 223.92 2.664C226.557 3.64533 228.949 4.84133 231.096 6.252C232.261 6.988 232.752 7.93866 232.568 9.104C232.384 10.5147 232.2 11.9867 232.016 13.52C231.832 14.992 231.74 16.5253 231.74 18.12V23.088H232.568C233.427 23.088 234.224 22.996 234.96 22.812C235.696 22.5667 236.463 22.2907 237.26 21.984C237.935 21.7387 238.64 21.5547 239.376 21.432C240.112 21.3093 240.817 21.248 241.492 21.248C242.473 21.248 243.24 21.616 243.792 22.352C244.589 23.3947 245.233 24.6213 245.724 26.032C246.276 27.4427 246.583 28.8227 246.644 30.172C246.644 30.6627 246.491 31.0613 246.184 31.368C245.877 31.6747 245.448 31.7667 244.896 31.644C243.669 31.46 242.412 31.3067 241.124 31.184C239.836 31.0613 238.364 31 236.708 31H231.74V44.248ZM218.308 68.72C218.308 65.776 217.449 63.3227 215.732 61.36C214.076 59.3973 211.837 58.416 209.016 58.416C206.133 58.416 203.864 59.3973 202.208 61.36C200.552 63.3227 199.724 65.776 199.724 68.72C199.724 71.664 200.552 74.1173 202.208 76.08C203.864 78.0427 206.133 79.024 209.016 79.024C211.837 79.024 214.076 78.0427 215.732 76.08C217.449 74.1173 218.308 71.664 218.308 68.72Z" fill="#0F0F0F"/>
</svg>
