<svg width="242" height="86" viewBox="0 0 242 86" fill="none" xmlns="http://www.w3.org/2000/svg">
<path d="M60.7373 40.63C59.0573 39.25 57.2273 37.9 55.2473 36.58C53.3273 35.2 51.3773 33.88 49.3973 32.62C47.4173 31.3 45.4373 30.07 43.4573 28.93C41.5373 27.73 39.7073 26.59 37.9673 25.51C34.4873 29.11 30.8273 32.35 26.9873 35.23C23.1473 38.05 19.6373 40.24 16.4573 41.8C15.7373 42.16 14.9873 42.43 14.2073 42.61C13.4873 42.79 12.7673 42.73 12.0473 42.43C11.2073 42.13 10.4873 41.8 9.88727 41.44C9.28727 41.02 8.77727 40.63 8.35727 40.27C7.87727 39.79 7.69727 39.25 7.81727 38.65C7.93727 37.99 8.29727 37.48 8.89727 37.12C11.1773 35.68 13.5173 34.09 15.9173 32.35C18.3773 30.61 20.7473 28.78 23.0273 26.86C25.3073 24.94 27.4373 22.93 29.4173 20.83C31.3973 18.67 33.0773 16.51 34.4573 14.35H28.9673C27.8273 14.35 26.7173 14.41 25.6373 14.53C24.6173 14.59 23.5973 14.77 22.5773 15.07C20.2973 15.73 18.1973 16.06 16.2773 16.06C15.4973 16.06 14.8973 15.97 14.4773 15.79C14.1173 15.61 13.7573 15.28 13.3973 14.8C12.7373 13.84 12.1073 12.67 11.5073 11.29C10.9073 9.91 10.5173 8.62 10.3373 7.42C10.2173 6.94 10.3073 6.55 10.6073 6.25C10.9673 5.89 11.3873 5.77 11.8673 5.89C13.3673 6.19 14.9573 6.4 16.6373 6.52C18.3173 6.58 20.1773 6.61 22.2173 6.61H49.5773C50.5973 6.61 51.7073 6.52 52.9073 6.34C54.1073 6.16 55.2173 5.95 56.2373 5.71C58.2773 5.23 60.2573 4.99 62.1773 4.99C63.2573 4.99 64.1573 5.44 64.8773 6.34C65.6573 7.3 66.2873 8.41 66.7673 9.67C67.2473 10.87 67.5473 12.13 67.6673 13.45C67.7273 14.41 67.1573 14.83 65.9573 14.71C64.3973 14.53 62.6873 14.44 60.8273 14.44C58.9673 14.38 57.1673 14.35 55.4273 14.35H46.6073C46.1273 15.19 45.6173 15.97 45.0773 16.69C44.5973 17.41 44.0573 18.16 43.4573 18.94C45.2573 19.84 47.1773 20.89 49.2173 22.09C51.3173 23.23 53.4773 24.46 55.6973 25.78C57.9173 27.1 60.1073 28.51 62.2673 30.01C64.4273 31.45 66.4973 32.92 68.4773 34.42C69.1373 34.9 69.3473 35.47 69.1073 36.13C68.9273 36.73 68.6873 37.27 68.3873 37.75C68.0273 38.23 67.5473 38.8 66.9473 39.46C66.3473 40.06 65.7473 40.54 65.1473 40.9C64.1273 41.56 63.2873 41.83 62.6273 41.71C62.0273 41.59 61.3973 41.23 60.7373 40.63ZM59.0273 46.84C61.3073 46.84 63.7673 46.51 66.4073 45.85C68.5673 45.31 70.8473 45.04 73.2473 45.04C74.3273 45.04 75.2273 45.49 75.9473 46.39C76.7273 47.35 77.3573 48.52 77.8373 49.9C78.3173 51.28 78.6173 52.63 78.7373 53.95C78.7973 54.97 78.2273 55.39 77.0273 55.21C75.4673 54.97 73.7573 54.82 71.8973 54.76C70.0373 54.64 68.2373 54.58 66.4973 54.58H45.6173V76.27C45.6173 77.71 45.0473 78.85 43.9073 79.69C42.8873 80.47 41.6873 81.1 40.3073 81.58C38.9873 82.12 37.6673 82.39 36.3473 82.39C34.9073 82.39 34.1873 81.67 34.1873 80.23V54.58H21.7673C20.4473 54.58 19.1573 54.67 17.8973 54.85C16.6373 54.97 15.4673 55.18 14.3873 55.48C11.8673 56.14 9.43727 56.47 7.09727 56.47C6.31727 56.47 5.71727 56.38 5.29727 56.2C4.93727 56.02 4.57727 55.69 4.21727 55.21C3.55727 54.25 2.92727 53.05 2.32727 51.61C1.72727 50.11 1.33727 48.76 1.15727 47.56C1.03727 47.08 1.12727 46.69 1.42727 46.39C1.78727 46.03 2.20727 45.91 2.68727 46.03C5.62727 46.57 9.07727 46.84 13.0373 46.84H59.0273ZM127.822 28.57C127.822 31.33 127.282 33.91 126.202 36.31C125.182 38.65 123.742 40.72 121.882 42.52C120.082 44.26 117.892 45.64 115.312 46.66C112.792 47.62 110.002 48.1 106.942 48.1C103.882 48.1 101.062 47.62 98.4824 46.66C95.9624 45.64 93.7724 44.26 91.9124 42.52C90.1124 40.72 88.6724 38.65 87.5924 36.31C86.5724 33.91 86.0624 31.33 86.0624 28.57C86.0624 25.81 86.5724 23.26 87.5924 20.92C88.6724 18.52 90.1124 16.45 91.9124 14.71C93.7724 12.91 95.9624 11.53 98.4824 10.57C101.062 9.55 103.882 9.04 106.942 9.04C110.002 9.04 112.792 9.55 115.312 10.57C117.892 11.53 120.082 12.91 121.882 14.71C123.742 16.45 125.182 18.52 126.202 20.92C127.282 23.26 127.822 25.81 127.822 28.57ZM116.482 28.57C116.482 24.97 115.612 22.12 113.872 20.02C112.132 17.92 109.822 16.87 106.942 16.87C104.062 16.87 101.752 17.92 100.012 20.02C98.2724 22.12 97.4024 24.97 97.4024 28.57C97.4024 32.17 98.2724 35.02 100.012 37.12C101.752 39.22 104.062 40.27 106.942 40.27C109.822 40.27 112.132 39.22 113.872 37.12C115.612 35.02 116.482 32.17 116.482 28.57ZM150.592 57.01C150.592 58.45 150.022 59.59 148.882 60.43C147.862 61.21 146.692 61.87 145.372 62.41C144.112 62.89 142.822 63.13 141.502 63.13C140.062 63.13 139.342 62.41 139.342 60.97V15.07C139.342 13.15 138.772 11.71 137.632 10.75C136.792 10.09 135.952 9.55 135.112 9.13C134.332 8.71 133.522 8.34999 132.682 8.05C131.962 7.75 131.632 7.3 131.692 6.7C131.812 5.86 132.082 4.93 132.502 3.90999C132.922 2.89 133.342 2.08 133.762 1.47999C134.062 1.06 134.542 0.909996 135.202 1.02999C137.782 1.51 140.362 2.26 142.942 3.28C145.522 4.24 147.862 5.41 149.962 6.79C151.102 7.51 151.582 8.44 151.402 9.58C151.222 10.96 151.042 12.4 150.862 13.9C150.682 15.34 150.592 16.84 150.592 18.4V57.01ZM135.922 74.65C138.202 74.65 140.662 74.32 143.302 73.66C145.462 73.12 147.742 72.85 150.142 72.85C151.222 72.85 152.122 73.3 152.842 74.2C153.622 75.16 154.252 76.3 154.732 77.62C155.212 78.94 155.512 80.26 155.632 81.58C155.692 82.54 155.122 82.96 153.922 82.84C152.362 82.66 150.652 82.54 148.792 82.48C146.932 82.42 145.132 82.39 143.392 82.39H115.222C114.442 82.39 113.662 82.33 112.882 82.21C112.102 82.15 111.382 82.03 110.722 81.85C108.922 81.25 107.542 80.26 106.582 78.88C106.282 78.4 106.042 77.86 105.862 77.26C105.682 76.72 105.592 76.15 105.592 75.55V66.1C105.592 65.32 105.472 64.57 105.232 63.85C105.052 63.07 104.722 62.47 104.242 62.05C103.702 61.57 103.072 61.21 102.352 60.97C101.692 60.67 101.032 60.4 100.372 60.16C99.5324 59.98 99.1724 59.59 99.2924 58.99C99.3524 58.33 99.4724 57.64 99.6524 56.92C99.8324 56.14 100.042 55.42 100.282 54.76C100.522 54.22 101.062 53.95 101.902 53.95C103.942 54.01 106.222 54.34 108.742 54.94C111.262 55.48 113.782 56.26 116.302 57.28C116.782 57.46 117.112 57.76 117.292 58.18C117.472 58.6 117.502 59.05 117.382 59.53C117.142 60.73 116.992 61.9 116.932 63.04C116.872 64.12 116.842 65.2 116.842 66.28V72.76C116.842 73.54 116.992 74.05 117.292 74.29C117.592 74.53 118.072 74.65 118.732 74.65H135.922ZM225.238 67.9C225.238 70.42 224.728 72.79 223.708 75.01C222.748 77.17 221.368 79.03 219.568 80.59C217.768 82.21 215.608 83.47 213.088 84.37C210.628 85.33 207.898 85.81 204.898 85.81C201.838 85.81 199.048 85.33 196.528 84.37C194.008 83.47 191.848 82.21 190.048 80.59C188.308 79.03 186.928 77.17 185.908 75.01C184.948 72.79 184.468 70.42 184.468 67.9C184.468 65.38 184.948 63.04 185.908 60.88C186.928 58.66 188.308 56.77 190.048 55.21C191.848 53.59 194.008 52.33 196.528 51.43C199.048 50.47 201.838 49.99 204.898 49.99C207.898 49.99 210.628 50.47 213.088 51.43C215.608 52.33 217.768 53.59 219.568 55.21C221.368 56.77 222.748 58.66 223.708 60.88C224.728 63.04 225.238 65.38 225.238 67.9ZM190.408 9.58C191.428 9.58 192.538 9.49 193.738 9.30999C194.938 9.13 196.048 8.92 197.068 8.68C199.108 8.2 201.088 7.96 203.008 7.96C204.088 7.96 204.988 8.41 205.708 9.30999C206.488 10.27 207.118 11.38 207.598 12.64C208.078 13.84 208.378 15.1 208.498 16.42C208.558 17.38 207.988 17.8 206.788 17.68C205.228 17.5 203.518 17.41 201.658 17.41C199.798 17.35 197.998 17.32 196.258 17.32H195.088C194.008 20.32 192.748 23.2 191.308 25.96C193.948 27.46 196.708 29.32 199.588 31.54C202.528 33.76 205.348 36.28 208.048 39.1C208.408 39.52 208.588 40 208.588 40.54C208.648 41.02 208.558 41.5 208.318 41.98C208.078 42.4 207.718 42.88 207.238 43.42C206.818 43.96 206.338 44.5 205.798 45.04C205.258 45.52 204.688 45.97 204.088 46.39C203.548 46.81 203.038 47.11 202.558 47.29C201.538 47.65 200.638 47.38 199.858 46.48C198.238 44.38 196.258 42.22 193.918 40C191.638 37.78 189.238 35.62 186.718 33.52C184.558 36.76 182.248 39.7 179.788 42.34C177.388 44.98 174.958 47.35 172.498 49.45C171.298 50.35 170.188 50.77 169.168 50.71C167.608 50.53 166.108 49.96 164.668 49C164.248 48.7 164.068 48.34 164.128 47.92C164.188 47.5 164.368 47.11 164.668 46.75C168.508 42.49 172.078 37.9 175.378 32.98C178.678 28 181.408 22.78 183.568 17.32C182.548 17.38 181.558 17.47 180.598 17.59C179.638 17.65 178.708 17.8 177.808 18.04C175.528 18.7 173.428 19.03 171.508 19.03C170.728 19.03 170.128 18.94 169.708 18.76C169.348 18.58 168.988 18.25 168.628 17.77C167.968 16.81 167.338 15.64 166.738 14.26C166.138 12.88 165.748 11.59 165.568 10.39C165.448 9.91 165.538 9.52 165.838 9.22C166.198 8.86 166.618 8.74 167.098 8.86C168.598 9.16 170.188 9.37 171.868 9.49C173.548 9.55 175.408 9.58 177.448 9.58H190.408ZM227.128 43.96C227.128 45.4 226.558 46.54 225.418 47.38C224.398 48.16 223.228 48.82 221.908 49.36C220.648 49.84 219.358 50.08 218.038 50.08C216.598 50.08 215.878 49.36 215.878 47.92V15.07C215.878 13.15 215.308 11.71 214.168 10.75C213.328 10.09 212.488 9.55 211.648 9.13C210.868 8.71 210.058 8.34999 209.218 8.05C208.498 7.75 208.168 7.3 208.228 6.7C208.348 5.86 208.618 4.93 209.038 3.90999C209.458 2.89 209.878 2.08 210.298 1.47999C210.598 1.06 211.078 0.909996 211.738 1.02999C214.318 1.51 216.898 2.26 219.478 3.28C222.058 4.24 224.398 5.41 226.498 6.79C227.638 7.51 228.118 8.44 227.938 9.58C227.758 10.96 227.578 12.4 227.398 13.9C227.218 15.34 227.128 16.84 227.128 18.4V23.26H227.938C228.778 23.26 229.558 23.17 230.278 22.99C230.998 22.75 231.748 22.48 232.528 22.18C233.188 21.94 233.878 21.76 234.598 21.64C235.318 21.52 236.008 21.46 236.668 21.46C237.628 21.46 238.378 21.82 238.918 22.54C239.698 23.56 240.328 24.76 240.808 26.14C241.348 27.52 241.648 28.87 241.708 30.19C241.708 30.67 241.558 31.06 241.258 31.36C240.958 31.66 240.538 31.75 239.998 31.63C238.798 31.45 237.568 31.3 236.308 31.18C235.048 31.06 233.608 31 231.988 31H227.128V43.96ZM213.988 67.9C213.988 65.02 213.148 62.62 211.468 60.7C209.848 58.78 207.658 57.82 204.898 57.82C202.078 57.82 199.858 58.78 198.238 60.7C196.618 62.62 195.808 65.02 195.808 67.9C195.808 70.78 196.618 73.18 198.238 75.1C199.858 77.02 202.078 77.98 204.898 77.98C207.658 77.98 209.848 77.02 211.468 75.1C213.148 73.18 213.988 70.78 213.988 67.9Z" fill="white"/>
</svg>
