<svg width="80" height="80" viewBox="0 0 80 80" fill="none" xmlns="http://www.w3.org/2000/svg">
<g clip-path="url(#clip0_1074_305)">
<path d="M10 33.3333C10 36.3975 10.6035 39.4317 11.7761 42.2626C12.9488 45.0935 14.6675 47.6658 16.8342 49.8325C19.0009 51.9992 21.5731 53.7179 24.4041 54.8905C27.235 56.0631 30.2692 56.6667 33.3333 56.6667C36.3975 56.6667 39.4317 56.0631 42.2626 54.8905C45.0935 53.7179 47.6658 51.9992 49.8325 49.8325C51.9992 47.6658 53.7179 45.0935 54.8905 42.2626C56.0631 39.4317 56.6667 36.3975 56.6667 33.3333C56.6667 30.2692 56.0631 27.235 54.8905 24.4041C53.7179 21.5731 51.9992 19.0009 49.8325 16.8342C47.6658 14.6675 45.0935 12.9488 42.2626 11.7761C39.4317 10.6035 36.3975 10 33.3333 10C30.2692 10 27.235 10.6035 24.4041 11.7761C21.5731 12.9488 19.0009 14.6675 16.8342 16.8342C14.6675 19.0009 12.9488 21.5731 11.7761 24.4041C10.6035 27.235 10 30.2692 10 33.3333Z" stroke="#AAAAAA" stroke-width="5" stroke-linecap="round" stroke-linejoin="round"/>
<path d="M70 70L50 50" stroke="#AAAAAA" stroke-width="5" stroke-linecap="round" stroke-linejoin="round"/>
</g>
<defs>
<clipPath id="clip0_1074_305">
<rect width="80" height="80" fill="white"/>
</clipPath>
</defs>
</svg>
