<svg width="100" height="100" viewBox="0 0 100 100" fill="none" xmlns="http://www.w3.org/2000/svg">
<g clip-path="url(#clip0_1328_4804)">
<path d="M12.5 41.6667C12.5 45.4969 13.2544 49.2896 14.7202 52.8283C16.1859 56.3669 18.3343 59.5822 21.0427 62.2906C23.7511 64.999 26.9664 67.1474 30.5051 68.6132C34.0437 70.0789 37.8364 70.8333 41.6667 70.8333C45.4969 70.8333 49.2896 70.0789 52.8283 68.6132C56.3669 67.1474 59.5822 64.999 62.2906 62.2906C64.999 59.5822 67.1474 56.3669 68.6132 52.8283C70.0789 49.2896 70.8333 45.4969 70.8333 41.6667C70.8333 37.8364 70.0789 34.0437 68.6132 30.5051C67.1474 26.9664 64.999 23.7511 62.2906 21.0427C59.5822 18.3343 56.3669 16.1859 52.8283 14.7202C49.2896 13.2544 45.4969 12.5 41.6667 12.5C37.8364 12.5 34.0437 13.2544 30.5051 14.7202C26.9664 16.1859 23.7511 18.3343 21.0427 21.0427C18.3343 23.7511 16.1859 26.9664 14.7202 30.5051C13.2544 34.0437 12.5 37.8364 12.5 41.6667Z" stroke="#0F0F0F" stroke-width="5" stroke-linecap="round" stroke-linejoin="round"/>
<path d="M87.5 87.5L62.5 62.5" stroke="#0F0F0F" stroke-width="5" stroke-linecap="round" stroke-linejoin="round"/>
</g>
<defs>
<clipPath id="clip0_1328_4804">
<rect width="100" height="100" fill="white"/>
</clipPath>
</defs>
</svg>
