<svg width="90" height="90" viewBox="0 0 90 90" fill="none" xmlns="http://www.w3.org/2000/svg">
<g clip-path="url(#clip0_1311_10901)">
<path d="M30 33.75H26.25C24.2609 33.75 22.3532 34.5402 20.9467 35.9467C19.5402 37.3532 18.75 39.2609 18.75 41.25V71.25C18.75 73.2391 19.5402 75.1468 20.9467 76.5533C22.3532 77.9598 24.2609 78.75 26.25 78.75H63.75C65.7391 78.75 67.6468 77.9598 69.0533 76.5533C70.4598 75.1468 71.25 73.2391 71.25 71.25V41.25C71.25 39.2609 70.4598 37.3532 69.0533 35.9467C67.6468 34.5402 65.7391 33.75 63.75 33.75H60" stroke="#0F0F0F" stroke-width="5" stroke-linecap="round" stroke-linejoin="round"/>
<path d="M45 52.5V11.25" stroke="#0F0F0F" stroke-width="5" stroke-linecap="round" stroke-linejoin="round"/>
<path d="M33.75 22.5L45 11.25L56.25 22.5" stroke="#0F0F0F" stroke-width="5" stroke-linecap="round" stroke-linejoin="round"/>
</g>
<defs>
<clipPath id="clip0_1311_10901">
<rect width="90" height="90" fill="white"/>
</clipPath>
</defs>
</svg>
