<svg width="66" height="62" viewBox="0 0 66 62" fill="none" xmlns="http://www.w3.org/2000/svg">
<path d="M22.042 18.4857L3.43368 21.1837L3.10409 21.2507C2.60517 21.3832 2.15033 21.6457 1.78603 22.0114C1.42173 22.3771 1.16102 22.833 1.03053 23.3324C0.90003 23.8319 0.904424 24.357 1.04326 24.8542C1.18209 25.3514 1.45039 25.8028 1.82076 26.1624L15.3016 39.2845L12.1224 57.8199L12.0845 58.1407C12.054 58.6568 12.1611 59.1716 12.395 59.6326C12.6289 60.0936 12.981 60.4842 13.4155 60.7643C13.8499 61.0445 14.351 61.2041 14.8674 61.2269C15.3839 61.2497 15.8971 61.1348 16.3545 60.8941L32.997 52.1441L49.6016 60.8941L49.8933 61.0282C50.3747 61.2179 50.8979 61.276 51.4092 61.1967C51.9205 61.1174 52.4015 60.9035 52.8029 60.5769C53.2043 60.2504 53.5115 59.8229 53.6932 59.3384C53.8748 58.8539 53.9243 58.3298 53.8366 57.8199L50.6545 39.2845L64.1412 26.1595L64.3687 25.9116C64.6937 25.5113 64.9067 25.0321 64.9862 24.5226C65.0657 24.0132 65.0087 23.4918 64.821 23.0116C64.6334 22.5314 64.3218 22.1095 63.918 21.7889C63.5142 21.4683 63.0327 21.2605 62.5224 21.1866L43.9141 18.4857L35.5958 1.62741C35.3551 1.13897 34.9824 0.727663 34.5201 0.440049C34.0577 0.152435 33.524 0 32.9795 0C32.435 0 31.9013 0.152435 31.439 0.440049C30.9766 0.727663 30.604 1.13897 30.3633 1.62741L22.042 18.4857Z" fill="#FEA938"/>
</svg>
