<svg width="69" height="65" viewBox="0 0 69 65" fill="none" xmlns="http://www.w3.org/2000/svg">
<path d="M22.7491 19.6236L2.99538 22.4875L2.64551 22.5587C2.11588 22.6993 1.63304 22.978 1.24632 23.3662C0.859599 23.7545 0.582843 24.2384 0.444315 24.7686C0.305788 25.2988 0.310452 25.8562 0.457832 26.384C0.605211 26.9118 0.890026 27.391 1.28319 27.7727L15.5938 41.7025L12.2189 61.3788L12.1787 61.7194C12.1463 62.2671 12.26 62.8137 12.5083 63.3031C12.7565 63.7924 13.1304 64.207 13.5916 64.5044C14.0528 64.8018 14.5847 64.9713 15.1329 64.9955C15.6811 65.0197 16.2259 64.8977 16.7115 64.6422L34.3784 55.3536L52.005 64.6422L52.3146 64.7846C52.8256 64.9859 53.3811 65.0476 53.9238 64.9634C54.4666 64.8792 54.9772 64.6521 55.4033 64.3055C55.8294 63.9588 56.1556 63.5051 56.3484 62.9908C56.5412 62.4764 56.5938 61.9201 56.5006 61.3788L53.1227 41.7025L67.4395 27.7696L67.681 27.5065C68.0259 27.0816 68.2521 26.5728 68.3365 26.032C68.4208 25.4913 68.3603 24.9378 68.1611 24.428C67.962 23.9182 67.6312 23.4704 67.2026 23.13C66.7739 22.7897 66.2627 22.5691 65.7211 22.4906L45.9674 19.6236L37.1371 1.72758C36.8815 1.20907 36.486 0.772451 35.9952 0.467134C35.5043 0.161817 34.9378 0 34.3598 0C33.7817 0 33.2152 0.161817 32.7244 0.467134C32.2336 0.772451 31.838 1.20907 31.5825 1.72758L22.7491 19.6236Z" fill="#DDDDDD"/>
</svg>
